<svg xmlns="http://www.w3.org/2000/svg" viewBox="-20 -20 140 140">
<defs>
<mask id="circle-mask">
<circle cx="50.0" cy="50.0" r="50.0" fill="white"/>
</mask>
</defs>
<g class="sun-facing">
<path d="M50.69,35.07L77.56,52.07L65.85,70.67L69.06,72.97L61.02,85.83L54.36,87.20" stroke="#f1b023" stroke-width="2.0" fill="none" class="sun-facing-edge"/>
<path d="M33.46,18.08L53.67,30.48L28.64,70.90" stroke="#f1b023" stroke-width="2.0" fill="none" class="sun-facing-edge"/>
<path d="M68.37,18.77L95.24,35.53L89.50,55.28L87.43,58.27" stroke="#f1b023" stroke-width="2.0" fill="none" class="sun-facing-edge"/>
</g>
<g class="shadows" mask="url(#circle-mask)">
<path d="M-43.84,106.06L54.36,87.20L28.41,70.90L50.69,35.07L-47.52,53.93Z" fill="#0A0A0A"/>
<path d="M-69.56,89.75L28.64,70.90L8.43,58.27L13.71,49.77L10.27,47.70L20.83,30.94L24.28,33.01L33.46,18.08L-64.74,36.93Z" fill="#0A0A0A"/>
<path d="M-10.77,77.12L87.43,58.27L55.97,38.43L68.37,18.77L-29.83,37.62Z" fill="#0A0A0A"/>
</g>
<g class="buildings">
<path d="M50.69,35.07L77.56,52.07L65.85,70.67L69.06,72.97L61.02,85.83L54.36,87.20L28.41,70.90Z" fill="#b38c3a"/>
<path d="M8.43,58.27L13.71,49.77L10.27,47.70L20.83,30.94L24.28,33.01L33.46,18.08L53.67,30.48L28.64,70.90Z" fill="#614c1f"/>
<path d="M55.97,38.43L68.37,18.77L95.24,35.53L89.50,55.28L87.43,58.27Z" fill="#614c1f"/>
</g>
<g class="highlights">
<path d="M69.06,72.97L61.02,85.83L58.04,83.30L64.70,70.21L77.56,52.07L65.85,70.67Z" fill="#b38c3a" opacity="0.5"/>
</g>
<circle cx="50.0" cy="50.0" r="50.0" fill="none" stroke="#f1b023" stroke-width="0.67" class="illuminated-edge"/>
<path d="M89.91,19.88A50.00,50.00 0 1,1 10.09,19.88" fill="none" stroke="#f1b023" stroke-width="2.0" class="day-arc"/>
<path d="M10.09,19.88A50.00,50.00 0 0,1 89.91,19.88" fill="none" stroke="#614c1f" stroke-width="2.0" class="night-arc"/>
<g class="sundial">
<path d="M29.30,-4.18A58.00,58.00 0 0,1 43.24,-7.61" stroke="#614c1f" stroke-width="3" fill="none" stroke-opacity="0.2" class="sundial-arc"/>
<path d="M43.24,-7.61A58.00,58.00 0 0,1 57.92,-7.46" stroke="#614c1f" stroke-width="3" fill="none" stroke-opacity="1.0" class="sundial-arc"/>
<path d="M57.92,-7.46A58.00,58.00 0 0,1 71.74,-3.77" stroke="#614c1f" stroke-width="3" fill="none" stroke-opacity="0.2" class="sundial-arc"/>
<path d="M71.74,-3.77A58.00,58.00 0 0,1 83.48,2.64" stroke="#614c1f" stroke-width="3" fill="none" stroke-opacity="1.0" class="sundial-arc"/>
<path d="M83.48,2.64A58.00,58.00 0 0,1 92.69,10.74" stroke="#614c1f" stroke-width="3" fill="none" stroke-opacity="0.2" class="sundial-arc"/>
<path d="M92.69,10.74A58.00,58.00 0 0,1 99.46,19.71" stroke="#614c1f" stroke-width="3" fill="none" stroke-opacity="1.0" class="sundial-arc"/>
<path d="M99.46,19.71A58.00,58.00 0 0,1 104.13,29.17" stroke="#614c1f" stroke-width="3" fill="none" stroke-opacity="0.2" class="sundial-arc"/>
<path d="M104.13,29.17A58.00,58.00 0 0,1 106.96,39.06" stroke="#614c1f" stroke-width="3" fill="none" stroke-opacity="1.0" class="sundial-arc"/>
<path d="M106.96,39.06A58.00,58.00 0 0,1 108.00,49.68" stroke="#614c1f" stroke-width="3" fill="none" stroke-opacity="0.2" class="sundial-arc"/>
<path d="M108.00,49.68A58.00,58.00 0 0,1 106.83,61.57" stroke="#614c1f" stroke-width="3" fill="none" stroke-opacity="1.0" class="sundial-arc"/>
<path d="M106.83,61.57A58.00,58.00 0 0,1 102.07,75.55" stroke="#614c1f" stroke-width="3" fill="none" stroke-opacity="0.2" class="sundial-arc"/>
<path d="M102.07,75.55A58.00,58.00 0 0,1 90.16,91.85" stroke="#614c1f" stroke-width="3" fill="none" stroke-opacity="1.0" class="sundial-arc"/>
<path d="M90.16,91.85A58.00,58.00 0 0,1 65.43,105.91" stroke="#614c1f" stroke-width="3" fill="none" stroke-opacity="0.2" class="sundial-arc"/>
<path d="M65.43,105.91A58.00,58.00 0 0,1 32.18,105.19" stroke="#614c1f" stroke-width="3" fill="none" stroke-opacity="1.0" class="sundial-arc"/>
<path d="M32.18,105.19A58.00,58.00 0 0,1 8.54,90.56" stroke="#614c1f" stroke-width="3" fill="none" stroke-opacity="0.2" class="sundial-arc"/>
<path d="M8.54,90.56A58.00,58.00 0 0,1 -2.62,74.39" stroke="#614c1f" stroke-width="3" fill="none" stroke-opacity="1.0" class="sundial-arc"/>
<path d="M-2.62,74.39A58.00,58.00 0 0,1 -7.02,60.60" stroke="#614c1f" stroke-width="3" fill="none" stroke-opacity="0.2" class="sundial-arc"/>
<path d="M-7.02,60.60A58.00,58.00 0 0,1 -7.99,48.83" stroke="#614c1f" stroke-width="3" fill="none" stroke-opacity="1.0" class="sundial-arc"/>
<path d="M-7.99,48.83A58.00,58.00 0 0,1 -6.81,38.29" stroke="#614c1f" stroke-width="3" fill="none" stroke-opacity="0.2" class="sundial-arc"/>
<path d="M-6.81,38.29A58.00,58.00 0 0,1 -3.84,28.43" stroke="#614c1f" stroke-width="3" fill="none" stroke-opacity="1.0" class="sundial-arc"/>
<path d="M-3.84,28.43A58.00,58.00 0 0,1 0.98,19.00" stroke="#614c1f" stroke-width="3" fill="none" stroke-opacity="0.2" class="sundial-arc"/>
<path d="M0.98,19.00A58.00,58.00 0 0,1 7.93,10.08" stroke="#614c1f" stroke-width="3" fill="none" stroke-opacity="1.0" class="sundial-arc"/>
<path d="M7.93,10.08A58.00,58.00 0 0,1 17.33,2.08" stroke="#614c1f" stroke-width="3" fill="none" stroke-opacity="0.2" class="sundial-arc"/>
<path d="M17.33,2.08A58.00,58.00 0 0,1 29.30,-4.18" stroke="#614c1f" stroke-width="3" fill="none" stroke-opacity="1.0" class="sundial-arc"/>
<line x1="30.73" y1="-0.45" x2="27.88" y2="-7.92" stroke="#f1b023" stroke-width="2" class="midnight-bar"/>
<line x1="87.39" y1="88.96" x2="92.93" y2="94.73" stroke="#f1b023" stroke-width="2" class="noon-bar"/>
<circle cx="89.91" cy="19.88" r="3" fill="#f1b023" class="sunrise-marker"/>
<circle cx="10.09" cy="19.88" r="3" fill="#614c1f" class="sunset-marker"/>
</g>
<circle cx="99.10" cy="40.57" r="5" fill="#f1b023" stroke="#614c1f" stroke-width="1" class="sun-marker"/>
</svg>
